<?xml version="1.0" encoding="utf-8"?>
<!-- Generator: Adobe Illustrator 16.0.0, SVG Export Plug-In . SVG Version: 6.00 Build 0)  -->
<!DOCTYPE svg PUBLIC "-//W3C//DTD SVG 1.1//EN" "http://www.w3.org/Graphics/SVG/1.1/DTD/svg11.dtd">
<svg version="1.1" id="Layer_1" xmlns="http://www.w3.org/2000/svg" xmlns:xlink="http://www.w3.org/1999/xlink" x="0px" y="0px"
	 width="40px" height="40px" viewBox="55 5 40 40" enable-background="new 55 5 40 40" xml:space="preserve">
<rect x="55" y="5" fill="#FFA500" width="40" height="40"/>
<g>
	<g>
		<g>
			<path fill="#FFFFFF" d="M70.46,13.563c-5.779,0-10.458,5.087-10.458,11.339c0,6.209,4.456,11.269,10.39,11.336v-3.762
				c-3.84-0.067-6.916-3.438-6.916-7.577c0-4.18,3.131-7.58,6.996-7.58c3.863,0,7,3.4,7,7.58c0,2.091-0.789,3.985-2.058,5.356
				l2.454,2.658c1.896-2.059,3.073-4.893,3.073-8.016C80.94,18.649,76.238,13.563,70.46,13.563z"/>
		</g>
	</g>
	<g>
		<g>
			<path fill="#FFFFFF" d="M65.227,15.086c-5.006,3.131-6.709,10.067-3.822,15.482c2.867,5.377,9.063,7.346,14.232,4.189
				L73.899,31.5c-3.355,2.021-7.574,0.77-9.484-2.814c-1.93-3.62-0.789-8.26,2.559-10.354c3.346-2.092,7.631-0.846,9.562,2.774
				c0.966,1.81,1.158,3.878,0.692,5.753l3.353,0.973c0.695-2.806,0.404-5.896-1.041-8.604C76.65,13.817,70.231,11.959,65.227,15.086
				z"/>
		</g>
	</g>
	<g>
		<polygon fill="#FFFFFF" points="78.021,27.766 75.555,30.439 81.127,36.438 86.061,36.438 		"/>
	</g>
</g>
<ellipse fill="#FFFFFF" cx="87.534" cy="25" rx="2.466" ry="2.672"/>
</svg>
