<?xml version="1.0" encoding="utf-8"?>
<!-- Generator: Adobe Illustrator 16.0.0, SVG Export Plug-In . SVG Version: 6.00 Build 0)  -->
<!DOCTYPE svg PUBLIC "-//W3C//DTD SVG 1.1//EN" "http://www.w3.org/Graphics/SVG/1.1/DTD/svg11.dtd">
<svg version="1.1" id="Layer_1" xmlns="http://www.w3.org/2000/svg" xmlns:xlink="http://www.w3.org/1999/xlink" x="0px" y="0px"
	 width="150px" height="50px" viewBox="0 0 150 50" enable-background="new 0 0 150 50" xml:space="preserve">
<rect fill="#FFA500" width="150" height="50"/>
<g>
	<polygon fill="#FFFFFF" points="84.857,13.663 81.148,13.663 73.463,36.338 77.174,36.338 	"/>
	<polygon fill="#FFFFFF" points="84.854,13.663 81.143,13.663 88.826,36.338 92.537,36.338 	"/>
</g>
<g>
	<g>
		<path fill="#FFFFFF" d="M61.992,25.315C61.895,29.473,58.8,32.66,55,32.66s-6.896-3.188-6.993-7.345H44.53
			c0.099,6.046,4.754,11.083,10.47,11.083c5.714,0,10.371-5.037,10.468-11.083H61.992z"/>
	</g>
	<g>
		<rect x="44.531" y="13.601" fill="#FFFFFF" width="3.49" height="12.092"/>
	</g>
	<g>
		<rect x="61.979" y="13.601" fill="#FFFFFF" width="3.49" height="12.092"/>
	</g>
</g>
<g>
	<path fill="#FFFFFF" d="M103.697,13.662c-0.059,0-0.115,0.009-0.174,0.01v3.776c0.059-0.004,0.115-0.01,0.174-0.01
		c1.443,0,2.617,1.271,2.617,2.832c0,1.526-1.123,2.771-2.523,2.826c-0.07,0.01-0.146,0.014-0.223,0.014
		c-0.017,0-0.029-0.002-0.045-0.002v3.759c0.059,0.004,0.115,0.01,0.174,0.01c3.367,0,6.107-2.963,6.107-6.607
		C109.805,16.627,107.064,13.662,103.697,13.662z"/>
	<path fill="#FFFFFF" d="M103.715,23.104c-0.049,0.004-0.097,0.008-0.146,0.008c-0.006,0-0.01,0-0.016,0c-0.01,0-0.021,0-0.027,0
		v3.777c0.058-0.004,0.113-0.01,0.172-0.01c1.443,0,2.617,1.27,2.617,2.832s-1.174,2.832-2.617,2.832
		c-0.059,0-0.114-0.006-0.172-0.01v3.775c0.058,0.002,0.113,0.01,0.172,0.01c3.367,0,6.107-2.965,6.107-6.607
		C109.805,26.072,107.074,23.114,103.715,23.104z"/>
	<g>
		<rect x="96.195" y="13.664" fill="#FFFFFF" width="7.678" height="3.778"/>
	</g>
	<g>
		<rect x="98.195" y="23.112" fill="#FFFFFF" width="7.328" height="3.777"/>
	</g>
	<g>
		<rect x="96.195" y="32.559" fill="#FFFFFF" width="7.678" height="3.779"/>
	</g>
	<g>
		<rect x="96.195" y="15.553" fill="#FFFFFF" width="3.49" height="18.896"/>
	</g>
</g>
<g>
	<rect x="113.672" y="13.663" fill="#FFFFFF" width="3.49" height="22.675"/>
	<g>
		<rect x="113.672" y="32.559" fill="#FFFFFF" width="14.656" height="3.779"/>
	</g>
</g>
<g>
	<g>
		<g>
			<path fill="#FFFFFF" d="M29.429,13.563c-5.779,0-10.458,5.087-10.458,11.339c0,6.209,4.456,11.269,10.39,11.336v-3.762
				c-3.84-0.067-6.916-3.438-6.916-7.575c0-4.18,3.131-7.58,6.996-7.58c3.863,0,7,3.4,7,7.58c0,2.091-0.789,3.985-2.058,5.356
				l2.454,2.658c1.896-2.057,3.072-4.891,3.072-8.016C39.909,18.649,35.208,13.563,29.429,13.563z"/>
		</g>
	</g>
	<g>
		<g>
			<path fill="#FFFFFF" d="M24.196,15.086c-5.006,3.131-6.709,10.067-3.822,15.482c2.867,5.377,9.063,7.346,14.232,4.191
				l-1.738-3.259c-3.355,2.021-7.574,0.769-9.484-2.815c-1.93-3.619-0.789-8.259,2.559-10.353c3.346-2.092,7.631-0.846,9.562,2.774
				c0.965,1.81,1.157,3.878,0.692,5.754l3.352,0.972c0.695-2.806,0.404-5.896-1.04-8.604C35.62,13.817,29.2,11.959,24.196,15.086z"
				/>
		</g>
	</g>
	<g>
		<polygon fill="#FFFFFF" points="36.991,27.766 34.524,30.439 40.096,36.438 45.03,36.438 		"/>
	</g>
</g>
<ellipse fill="#FFFFFF" cx="71" cy="25" rx="2.466" ry="2.672"/>
</svg>
